<?xml version="1.0" encoding="utf-8"?>
<!-- Generator: Adobe Illustrator 25.2.0, SVG Export Plug-In . SVG Version: 6.00 Build 0)  -->
<svg version="1.1" id="Layer_1" xmlns="http://www.w3.org/2000/svg" xmlns:xlink="http://www.w3.org/1999/xlink" x="0px" y="0px"
	 viewBox="0 0 372.13 311.98" style="enable-background:new 0 0 372.13 311.98;" xml:space="preserve">
<style type="text/css">
	.st0{clip-path:url(#SVGID_2_);}
	.st1{fill:url(#Rectangle_2100_1_);}
	.st2{fill:#0D003B;}
</style>
<g id="Group_11331" transform="translate(-21.12 -58)">
	<g>
		<defs>
			<path id="SVGID_1_" d="M177.18,186.1c0.08-17.58,14.39-31.76,31.97-31.68c17.58-0.08,31.89,14.1,31.97,31.68
				c-0.08,17.58-14.4,31.76-31.97,31.68c0,0,0,0,0,0C191.57,217.85,177.26,203.67,177.18,186.1 M284.49,58
				c-27.22,0-57.56,21.86-57.56,48.84v5.65c-5.8-1.44-11.74-2.2-17.72-2.27c-41.87-0.54-76.31,32.83-77.09,74.69
				c-0.24,41.88,33.51,76.03,75.39,76.27c0.26,0,0.53,0,0.79,0c41.88,0.19,75.99-33.6,76.19-75.49c0-1.01,0.04-2.01,0-3.01V58
				L284.49,58z"/>
		</defs>
		<clipPath id="SVGID_2_">
			<use xlink:href="#SVGID_1_"  style="overflow:visible;"/>
		</clipPath>
		<g id="Group_11324" transform="translate(63 58)" class="st0">
			
				<linearGradient id="Rectangle_2100_1_" gradientUnits="userSpaceOnUse" x1="-49.8563" y1="577.6068" x2="-49.912" y2="580.2333" gradientTransform="matrix(67.1667 -67.1667 -67.1667 -67.1667 42380.168 35635.5312)">
				<stop  offset="0" style="stop-color:#3BBFF0"/>
				<stop  offset="0.201" style="stop-color:#36A4E5"/>
				<stop  offset="0.866" style="stop-color:#1700A2"/>
				<stop  offset="1" style="stop-color:#0D003B"/>
			</linearGradient>
			<polygon id="Rectangle_2100" class="st1" points="-32.9,101.59 145.11,-76.42 323.13,101.59 145.11,279.6 			"/>
		</g>
	</g>
	<g id="Group_11327" transform="translate(-50.88 -8.923)">
		<g id="Group_11328" transform="translate(72 154.565)">
			<g id="Group_11330" transform="translate(0 23.96)">
				<path id="Path_85" d="M10.21,195.8c0,2.49-1.66,4.27-5.04,4.27H0.5c-0.25,0.02-0.48-0.16-0.5-0.42c0-0.03,0-0.05,0-0.08v-14.62
					c-0.02-0.25,0.17-0.48,0.42-0.5c0.03,0,0.05,0,0.08,0h4.37c2.99,0,4.62,1.64,4.62,3.96c0.1,1.57-0.9,3.01-2.42,3.45
					C8.95,192.21,10.29,193.9,10.21,195.8 M4.9,191.49c2.42,0,3.61-1.33,3.61-3.06c0-1.78-1.24-3.01-3.63-3.01H1.01v6.07H4.9z
					 M5.18,199.13c2.63,0,4.03-1.26,4.03-3.32s-1.45-3.37-4.03-3.37H1.01v6.69H5.18z"/>
				<path id="Path_86" d="M13.58,192.27c0-4.39,2.42-8.09,6.57-8.09s6.57,3.71,6.57,8.09c0,4.38-2.42,8.09-6.57,8.09
					S13.58,196.65,13.58,192.27 M25.72,192.27c0-3.87-2.06-7.14-5.57-7.14s-5.57,3.27-5.57,7.14c0,3.87,2.06,7.14,5.57,7.14
					S25.72,196.14,25.72,192.27"/>
				<path id="Path_87" d="M30.33,192.27c0-4.39,2.42-8.09,6.57-8.09s6.57,3.71,6.57,8.09c0,4.38-2.42,8.09-6.57,8.09
					S30.33,196.65,30.33,192.27 M42.48,192.27c0-3.87-2.06-7.14-5.57-7.14s-5.57,3.27-5.57,7.14c0,3.87,2.06,7.14,5.57,7.14
					S42.48,196.14,42.48,192.27"/>
				<path id="Path_88" d="M51.94,199.4c2.77,0,4.13-1.35,4.13-3.32c0-2.37-1.95-2.87-4.15-3.46c-2.21-0.59-4.56-1.38-4.56-4.37
					c0-2.54,1.66-4.08,4.65-4.08c1.44-0.06,2.85,0.4,3.98,1.3c0.16,0.13,0.25,0.32,0.27,0.53c0.02,0.23-0.15,0.43-0.37,0.45
					c-0.03,0-0.05,0-0.08,0c-0.22-0.03-0.41-0.14-0.55-0.31c-0.91-0.74-2.06-1.1-3.23-1.02c-2.51,0-3.65,1.23-3.65,3.15
					c0,2.3,1.69,2.8,3.87,3.42c2.39,0.67,4.84,1.35,4.84,4.39c0,2.47-1.73,4.27-5.08,4.27c-1.81,0.13-3.57-0.58-4.79-1.92
					c-0.12-0.13-0.19-0.3-0.19-0.47c-0.03-0.24,0.14-0.45,0.38-0.47c0.02,0,0.05,0,0.07,0c0.23,0.02,0.43,0.16,0.55,0.36
					c0.99,1.11,2.45,1.69,3.94,1.57"/>
				<path id="Path_89" d="M65.49,199.62c0.05,0.28-0.13,0.54-0.41,0.59c-0.28,0.05-0.54-0.13-0.59-0.41c-0.01-0.06-0.01-0.12,0-0.18
					v-14.2h-4.75c-0.26,0.05-0.51-0.13-0.56-0.39c-0.05-0.26,0.13-0.51,0.39-0.56c0.06-0.01,0.12-0.01,0.17,0h10.49
					c0.26-0.05,0.51,0.13,0.56,0.39c0.05,0.26-0.13,0.51-0.39,0.56c-0.06,0.01-0.12,0.01-0.17,0h-4.74V199.62z"/>
				<path id="Path_90" d="M87.69,184.65c0.08-0.2,0.26-0.33,0.47-0.33c0.25-0.02,0.46,0.17,0.47,0.42c0,0.02,0,0.04,0,0.05
					c-0.01,0.14-0.05,0.28-0.12,0.4l-4.72,8.73v5.69c0.05,0.28-0.14,0.54-0.42,0.58c-0.28,0.05-0.54-0.14-0.58-0.42
					c-0.01-0.05-0.01-0.11,0-0.16v-5.69l-4.72-8.73c-0.07-0.12-0.11-0.26-0.12-0.4c-0.02-0.25,0.17-0.46,0.42-0.47
					c0.02,0,0.04,0,0.05,0c0.21,0,0.4,0.13,0.47,0.33l4.39,8.13L87.69,184.65z"/>
				<path id="Path_91" d="M90.94,192.27c0-4.39,2.42-8.09,6.57-8.09c4.15,0,6.57,3.71,6.57,8.09c0,4.38-2.42,8.09-6.57,8.09
					C93.36,200.36,90.94,196.65,90.94,192.27 M103.09,192.27c0-3.87-2.06-7.14-5.57-7.14c-3.5,0-5.57,3.27-5.57,7.14
					c0,3.87,2.06,7.14,5.57,7.14C101.02,199.41,103.09,196.14,103.09,192.27"/>
				<path id="Path_92" d="M108.28,194.28v-9.37c-0.05-0.28,0.14-0.54,0.42-0.58c0.28-0.05,0.54,0.14,0.58,0.42
					c0.01,0.05,0.01,0.11,0,0.16v9.37c0,3.34,1.78,5.13,4.51,5.13s4.48-1.78,4.48-5.13v-9.37c-0.05-0.28,0.13-0.54,0.41-0.59
					c0.28-0.05,0.54,0.13,0.59,0.41c0.01,0.06,0.01,0.12,0,0.18v9.37c0.31,3.03-1.91,5.74-4.94,6.05c-3.03,0.31-5.74-1.91-6.05-4.94
					C108.24,195.02,108.24,194.65,108.28,194.28"/>
				<path id="Path_93" d="M125.18,199.62c0.05,0.28-0.13,0.54-0.41,0.59c-0.28,0.05-0.54-0.13-0.59-0.41
					c-0.01-0.06-0.01-0.12,0-0.18v-14.66c-0.02-0.25,0.17-0.48,0.42-0.5c0.02,0,0.05,0,0.07,0h4.79c2.38-0.3,4.55,1.38,4.85,3.76
					c0.03,0.2,0.04,0.4,0.03,0.61c0.07,2.14-1.5,3.98-3.63,4.24l3.58,6.19c0.1,0.15,0.15,0.32,0.17,0.5
					c0.03,0.22-0.13,0.42-0.36,0.45c-0.02,0-0.05,0-0.07,0c-0.26-0.02-0.49-0.18-0.59-0.43l-3.8-6.6h-4.48L125.18,199.62z
					 M129.47,192.25c2.54,0,3.89-1.35,3.89-3.42c0-2.02-1.33-3.42-3.89-3.42h-4.29v6.84H129.47z"/>
				<path id="Path_94" d="M148.78,200.07h-3.77c-0.25,0.02-0.48-0.17-0.5-0.42c0-0.02,0-0.05,0-0.07v-14.62
					c-0.02-0.25,0.17-0.48,0.42-0.5c0.03,0,0.05,0,0.08,0h3.77c4.31,0.32,7.55,4.07,7.23,8.38
					C155.72,196.71,152.65,199.79,148.78,200.07 M148.76,199.13c3.79-0.39,6.54-3.77,6.15-7.56c-0.33-3.25-2.9-5.82-6.15-6.15h-3.26
					v13.71H148.76z"/>
				<path id="Path_95" d="M160.71,195.54l-1.57,4.24c-0.06,0.25-0.28,0.42-0.53,0.43c-0.24,0.01-0.44-0.17-0.45-0.41
					c0-0.02,0-0.05,0-0.07c0-0.14,0.03-0.27,0.07-0.4l5.41-14.59c0.05-0.29,0.33-0.48,0.61-0.43c0.22,0.04,0.39,0.21,0.43,0.43
					l5.41,14.59c0.04,0.13,0.07,0.27,0.07,0.4c0.03,0.24-0.15,0.45-0.38,0.47c-0.02,0-0.05,0-0.07,0c-0.25-0.01-0.47-0.18-0.53-0.43
					l-1.57-4.24H160.71z M164.18,186.15l-3.11,8.44h6.21L164.18,186.15z"/>
				<path id="Path_96" d="M176.66,199.62c0.05,0.27-0.13,0.54-0.4,0.59c-0.27,0.05-0.54-0.13-0.59-0.4c-0.01-0.06-0.01-0.13,0-0.19
					v-14.2h-4.75c-0.26,0.05-0.51-0.13-0.56-0.39c-0.05-0.26,0.13-0.51,0.39-0.56c0.06-0.01,0.12-0.01,0.17,0h10.48
					c0.26-0.05,0.51,0.13,0.56,0.39c0.05,0.26-0.13,0.51-0.39,0.56c-0.06,0.01-0.12,0.01-0.17,0h-4.74V199.62z"/>
				<path id="Path_97" d="M184.67,195.54l-1.57,4.24c-0.06,0.25-0.28,0.42-0.53,0.43c-0.24,0.01-0.44-0.17-0.45-0.41
					c0-0.02,0-0.05,0-0.07c0-0.14,0.03-0.27,0.07-0.4l5.41-14.59c0.05-0.29,0.33-0.48,0.61-0.43c0.22,0.04,0.39,0.21,0.43,0.43
					l5.41,14.59c0.04,0.13,0.07,0.27,0.07,0.4c0.03,0.24-0.15,0.45-0.38,0.47c-0.02,0-0.05,0-0.07,0c-0.25-0.01-0.47-0.18-0.53-0.43
					l-1.57-4.24H184.67z M188.14,186.15l-3.11,8.44h6.21L188.14,186.15z"/>
				<path id="Path_98" d="M204.8,199.62c0.05,0.28-0.13,0.54-0.41,0.59c-0.28,0.05-0.54-0.13-0.59-0.41c-0.01-0.06-0.01-0.12,0-0.18
					v-14.66c-0.02-0.26,0.17-0.48,0.42-0.5c0.02,0,0.05,0,0.07,0h4.62c2.5-0.27,4.75,1.54,5.02,4.04c0.27,2.5-1.54,4.75-4.04,5.02
					c-0.33,0.04-0.66,0.04-0.98,0h-4.13L204.8,199.62z M208.92,192.58c2.65,0,4.06-1.4,4.06-3.58c0-2.18-1.41-3.58-4.06-3.58h-4.13
					v7.16H208.92z"/>
				<path id="Path_99" d="M225.93,199.12c0.28-0.04,0.53,0.16,0.57,0.44c0,0.01,0,0.03,0,0.04c0,0.27-0.21,0.47-0.57,0.47h-7.73
					c-0.25,0.02-0.47-0.17-0.5-0.42c0-0.03,0-0.05,0-0.08v-14.66c-0.05-0.28,0.13-0.54,0.41-0.59c0.28-0.05,0.54,0.13,0.59,0.41
					c0.01,0.06,0.01,0.12,0,0.18v14.21L225.93,199.12z"/>
				<path id="Path_100" d="M231.32,195.54l-1.57,4.24c-0.06,0.25-0.28,0.42-0.53,0.43c-0.24,0.01-0.44-0.17-0.45-0.41
					c0-0.02,0-0.05,0-0.07c0-0.14,0.03-0.27,0.07-0.4l5.41-14.59c0.05-0.29,0.33-0.48,0.62-0.42c0.21,0.04,0.38,0.21,0.42,0.42
					l5.41,14.59c0.04,0.13,0.07,0.27,0.07,0.4c0.03,0.24-0.15,0.45-0.38,0.47c-0.02,0-0.05,0-0.07,0c-0.25-0.01-0.47-0.18-0.53-0.43
					l-1.57-4.24H231.32z M234.79,186.15l-3.11,8.44h6.21L234.79,186.15z"/>
				<path id="Path_101" d="M247.27,199.62c0.05,0.28-0.14,0.54-0.42,0.58c-0.28,0.05-0.54-0.14-0.58-0.42
					c-0.01-0.05-0.01-0.11,0-0.16v-14.2h-4.73c-0.26,0.05-0.51-0.13-0.56-0.39c-0.05-0.26,0.13-0.51,0.39-0.56
					c0.06-0.01,0.12-0.01,0.17,0h10.49c0.26-0.05,0.51,0.13,0.56,0.39c0.05,0.26-0.13,0.51-0.39,0.56c-0.06,0.01-0.12,0.01-0.17,0
					h-4.74L247.27,199.62z"/>
				<path id="Path_102" d="M257.06,199.62c0.05,0.27-0.13,0.54-0.4,0.59c-0.27,0.05-0.54-0.13-0.59-0.4c-0.01-0.06-0.01-0.13,0-0.19
					v-14.66c-0.02-0.25,0.17-0.48,0.42-0.5c0.02,0,0.05,0,0.07,0h8.06c0.26-0.05,0.51,0.13,0.56,0.39c0.05,0.26-0.13,0.51-0.39,0.56
					c-0.06,0.01-0.12,0.01-0.17,0h-7.57v6.34h5.05c0.26-0.05,0.52,0.12,0.57,0.38c0.05,0.26-0.12,0.52-0.38,0.57
					c-0.06,0.01-0.13,0.01-0.19,0h-5.05V199.62z"/>
				<path id="Path_103" d="M267.57,192.27c0-4.39,2.42-8.09,6.57-8.09c4.15,0,6.57,3.71,6.57,8.09c0,4.38-2.42,8.09-6.57,8.09
					C269.99,200.36,267.57,196.65,267.57,192.27 M279.72,192.27c0-3.87-2.06-7.14-5.57-7.14s-5.57,3.27-5.57,7.14
					c0,3.87,2.06,7.14,5.57,7.14S279.72,196.14,279.72,192.27"/>
				<path id="Path_104" d="M286.03,199.62c0.05,0.28-0.13,0.54-0.41,0.59c-0.28,0.05-0.54-0.13-0.59-0.41
					c-0.01-0.06-0.01-0.12,0-0.18v-14.66c-0.02-0.25,0.17-0.48,0.42-0.5c0.02,0,0.05,0,0.07,0h4.79c2.38-0.3,4.55,1.38,4.85,3.76
					c0.03,0.2,0.04,0.4,0.03,0.6c0.07,2.14-1.5,3.98-3.63,4.24l3.58,6.19c0.1,0.15,0.15,0.32,0.16,0.5
					c0.03,0.22-0.13,0.42-0.35,0.45c-0.02,0-0.05,0-0.08,0c-0.26-0.02-0.49-0.18-0.6-0.43l-3.79-6.6h-4.48V199.62z M290.32,192.25
					c2.54,0,3.89-1.35,3.89-3.42c0-2.02-1.33-3.42-3.89-3.42h-4.29v6.84H290.32z"/>
				<path id="Path_105" d="M311.44,184.73c0.12-0.27,0.27-0.41,0.5-0.41c0.28,0,0.51,0.23,0.5,0.52c0,0.02,0,0.04,0,0.05v14.74
					c0.05,0.28-0.14,0.54-0.42,0.58c-0.28,0.04-0.54-0.14-0.58-0.42c-0.01-0.05-0.01-0.11,0-0.16V186.9l-5,10.15
					c-0.1,0.28-0.4,0.42-0.68,0.32c-0.15-0.05-0.27-0.17-0.32-0.32l-5-10.15v12.72c0.05,0.28-0.14,0.54-0.42,0.58
					c-0.28,0.04-0.54-0.14-0.58-0.42c-0.01-0.05-0.01-0.11,0-0.16v-14.74c-0.03-0.28,0.17-0.53,0.44-0.57c0.02,0,0.04,0,0.06,0
					c0.24,0,0.38,0.14,0.5,0.41l5.5,11.17L311.44,184.73z"/>
				<path id="Path_106" d="M318.7,195.54l-1.57,4.24c-0.1,0.24-0.24,0.43-0.53,0.43c-0.24,0.01-0.44-0.17-0.45-0.41
					c0-0.02,0-0.04,0-0.07c0-0.14,0.03-0.27,0.07-0.4l5.41-14.59c0.05-0.29,0.33-0.48,0.61-0.43c0.22,0.04,0.39,0.21,0.43,0.43
					l5.41,14.59c0.04,0.13,0.07,0.27,0.07,0.4c0.03,0.24-0.15,0.45-0.38,0.47c-0.02,0-0.05,0-0.07,0c-0.25,0-0.47-0.18-0.53-0.43
					l-1.57-4.24H318.7z M322.16,186.15l-3.11,8.44h6.21L322.16,186.15z"/>
				<path id="Path_107" d="M342.11,184.91c-0.05-0.28,0.14-0.54,0.42-0.58c0.28-0.05,0.54,0.14,0.58,0.42
					c0.01,0.05,0.01,0.11,0,0.16v14.76c0.03,0.27-0.16,0.51-0.43,0.54c-0.02,0-0.05,0-0.08,0c-0.2-0.02-0.38-0.13-0.47-0.31
					l-9.25-13.5v13.21c0.05,0.28-0.13,0.54-0.41,0.59c-0.28,0.05-0.54-0.13-0.59-0.41c-0.01-0.06-0.01-0.12,0-0.18v-14.76
					c-0.03-0.27,0.16-0.51,0.43-0.54c0.02,0,0.05,0,0.08,0c0.2,0.02,0.38,0.13,0.47,0.31l9.25,13.5L342.11,184.91z"/>
				<path id="Path_108" d="M347.43,192.27c0-4.39,2.42-8.09,6.57-8.09c1.66-0.03,3.26,0.65,4.39,1.88c0.15,0.14,0.25,0.33,0.27,0.53
					c0.02,0.23-0.16,0.43-0.39,0.45c-0.02,0-0.04,0-0.06,0c-0.21-0.02-0.4-0.12-0.53-0.28c-0.94-1.05-2.28-1.63-3.68-1.61
					c-3.51,0-5.57,3.27-5.57,7.14c0,3.87,2.06,7.14,5.57,7.14c1.4,0.02,2.75-0.57,3.68-1.61c0.13-0.16,0.32-0.27,0.53-0.29
					c0.23-0.02,0.43,0.16,0.45,0.39c0,0.02,0,0.04,0,0.06c-0.02,0.2-0.11,0.39-0.27,0.53c-1.13,1.22-2.73,1.9-4.39,1.87
					c-4.15,0-6.57-3.71-6.57-8.09"/>
				<path id="Path_109" d="M371.56,199.13c0.26-0.05,0.51,0.13,0.56,0.39c0.05,0.26-0.13,0.51-0.39,0.56
					c-0.06,0.01-0.12,0.01-0.17,0h-8.22c-0.25,0.02-0.48-0.16-0.5-0.42c0-0.03,0-0.05,0-0.08v-14.62c-0.02-0.26,0.17-0.48,0.43-0.5
					c0.02,0,0.05,0,0.07,0h8.06c0.26-0.05,0.51,0.13,0.56,0.39c0.05,0.26-0.13,0.51-0.39,0.56c-0.06,0.01-0.12,0.01-0.17,0h-7.57
					v6.07h5.05c0.26-0.05,0.51,0.13,0.56,0.39c0.05,0.26-0.13,0.51-0.39,0.56c-0.06,0.01-0.12,0.01-0.17,0h-5.05v6.69L371.56,199.13
					z"/>
			</g>
			<g id="Group_11329" transform="translate(9.629 0)">
				<path id="Path_110" class="st2" d="M311.66,194.68c-9.47,0-15.27-7.71-15.27-18.5c0-10.79,5.87-18.5,14.97-18.5
					c3.32-0.16,6.54,1.19,8.75,3.67c0.76-2.14,2.79-3.56,5.06-3.52c3.07,0.02,5.55,2.53,5.53,5.6c0,0.17-0.01,0.33-0.03,0.49v16.51
					c-0.17,1.79,0.41,3.58,1.61,4.92c1.17,1.25,2.57,2.2,2.57,4.62c0,2.86-1.84,4.55-5.43,4.55c-3.19,0.15-6.16-1.61-7.56-4.48
					C319.44,193.18,315.62,194.91,311.66,194.68 M319.89,176.18c0-4.26-2.28-7.78-6.1-7.78c-3.82,0-6.1,3.52-6.1,7.78
					s2.27,7.78,6.1,7.78C317.61,183.96,319.89,180.44,319.89,176.18"/>
				<path id="Path_111" class="st2" d="M71.8,194.7c-9.47,0-15.27-7.71-15.27-18.5c0-10.79,5.87-18.5,14.97-18.5
					c3.32-0.16,6.54,1.19,8.75,3.67c0.76-2.14,2.8-3.55,5.06-3.52c3.07,0.02,5.55,2.53,5.53,5.6c0,0.17-0.01,0.33-0.03,0.49v16.51
					c-0.17,1.79,0.41,3.58,1.62,4.92c1.17,1.25,2.57,2.2,2.57,4.62c0,2.86-1.83,4.55-5.43,4.55c-3.19,0.15-6.16-1.61-7.56-4.48
					c-2.43,3.13-6.25,4.86-10.2,4.62 M80.03,176.2c0-4.26-2.27-7.78-6.1-7.78s-6.1,3.52-6.1,7.78c0,4.26,2.27,7.78,6.1,7.78
					S80.03,180.46,80.03,176.2"/>
				<path id="Path_112" class="st2" d="M53.09,144.64L53.09,144.64c-6.65,0-14.05,5.39-14.05,12.03v1.39
					c-9.96-2.51-20.07,3.52-22.59,13.48s3.52,20.07,13.48,22.59c9.96,2.51,20.07-3.52,22.59-13.48c0.38-1.49,0.57-3.02,0.57-4.55
					c0-0.25,0-0.5,0-0.74V144.64z M34.5,183.91c-3.37,0-6.11-3.49-6.11-7.81c0-4.31,2.74-7.81,6.11-7.81s6.11,3.49,6.11,7.81
					C40.61,180.41,37.87,183.91,34.5,183.91"/>
				<path id="Path_113" class="st2" d="M131.82,144.64L131.82,144.64c-6.64,0-14.05,5.39-14.05,12.03v1.39
					c-9.96-2.51-20.07,3.52-22.59,13.48c-2.51,9.96,3.52,20.07,13.48,22.59c9.96,2.51,20.07-3.52,22.59-13.48
					c0.38-1.49,0.57-3.02,0.57-4.55c0-0.25,0-0.5,0-0.74V144.64z M113.22,183.91c-3.37,0-6.11-3.49-6.11-7.81
					c0-4.31,2.74-7.81,6.11-7.81s6.11,3.49,6.11,7.81C119.34,180.41,116.6,183.91,113.22,183.91"/>
				<path id="Path_114" class="st2" d="M135.07,176.15c0-10.08,6.41-18.55,17.3-18.55s17.3,8.47,17.3,18.55s-6.41,18.55-17.3,18.55
					S135.07,186.24,135.07,176.15 M158.48,176.15c0-4.27-2.28-7.8-6.11-7.8s-6.11,3.53-6.11,7.8c0,4.27,2.28,7.8,6.11,7.8
					S158.48,180.42,158.48,176.15"/>
				<path id="Path_115" class="st2" d="M172.02,186.82c-0.12-2.26,1.62-4.19,3.87-4.3c0.25-0.01,0.51,0,0.76,0.03
					c3.83,0,4.79,3.02,9.94,3.02c2.14,0,3.75-0.52,3.75-1.77c0-1.99-4.27-2.28-8.61-3.68c-4.49-1.4-8.98-4.05-8.98-10.9
					s4.64-11.63,13.4-11.63c6.41,0,12.73,2.5,12.73,7.51c0.07,2.23-1.68,4.09-3.91,4.15c-0.22,0.01-0.44,0-0.65-0.03
					c-3.6,0-4.05-2.5-8.02-2.5c-1.91,0-3.16,0.67-3.16,1.69c0,1.77,3.02,2.28,6.63,3.31c5.01,1.4,10.97,3.76,10.97,11.48
					c0,7.66-5.89,11.48-14.43,11.48C179.16,194.69,172.02,192.04,172.02,186.82"/>
				<path id="Path_116" class="st2" d="M221,188.59c0.31,3.05-1.92,5.77-4.97,6.08c-3.05,0.31-5.77-1.92-6.08-4.97
					c-0.04-0.37-0.04-0.74,0-1.11v-17.67h-1.62c-2.97,0.31-5.63-1.85-5.94-4.81c-0.31-2.97,1.85-5.63,4.81-5.94
					c0.37-0.04,0.75-0.04,1.12,0h1.62v-1.47c0-8.76,4.79-14.06,13.1-14.06c5.45,0,7.58,2.21,7.58,5.45c0.07,2.89-2.22,5.28-5.1,5.35
					c-0.29,0.01-0.57-0.01-0.86-0.05c-2.13,0-3.68,1.25-3.68,4.27v0.51h3.75c2.97-0.26,5.59,1.93,5.85,4.9
					c0.26,2.97-1.93,5.59-4.9,5.85c-0.32,0.03-0.64,0.03-0.96,0h-3.75L221,188.59z"/>
				<path id="Path_117" class="st2" d="M250.14,184.54c4.27,0,4.71-2.65,8.1-2.65c2.58-0.14,4.79,1.84,4.93,4.41
					c0.01,0.12,0.01,0.25,0.01,0.37c0,4.79-6.26,8.03-13.1,8.03c-11.04,0-17.08-8.54-17.08-18.63c0-10.09,5.97-18.48,16.34-18.48
					c9.02,0.06,16.29,7.4,16.27,16.42c0,4.27-2.06,5.74-5.52,5.74h-15.68c0.22,2.87,2.72,5.02,5.59,4.8
					C250.04,184.55,250.09,184.54,250.14,184.54 M253.96,171.95c-0.52-2.94-2.14-4.78-4.64-4.78c-2.5,0-4.12,1.84-4.64,4.78H253.96z
					"/>
				<path id="Path_118" class="st2" d="M288.18,157.74c3-0.21,5.61,2.05,5.82,5.05c0.01,0.2,0.02,0.41,0.01,0.61
					c0.06,3.04-2.37,5.56-5.41,5.61c-0.19,0-0.37,0-0.55-0.02c-3.98,0-6.85,2.43-6.85,7.81v11.78c0.31,3.05-1.92,5.77-4.97,6.08
					c-3.05,0.31-5.77-1.92-6.08-4.97c-0.04-0.37-0.04-0.74,0-1.11V164c-0.29-3.07,1.97-5.8,5.04-6.09c0.16-0.02,0.32-0.02,0.48-0.02
					c2.79-0.02,5.15,2.08,5.45,4.86c1.16-2.92,3.93-4.88,7.07-5.01"/>
			</g>
		</g>
	</g>
</g>
</svg>
